PathFileType	4	(X/Y/Z)	SUBJ32_1_walk_RCNL2025.trc
DataRate	CameraRate	NumFrames	NumMarkers	Units	OrigDataRate	OrigDataStartFrame	OrigNumFrames
100	100	5	25	mm	100	166	331
Frame#	Time	R_Shoulder			L_Shoulder			C7			J_Notch			R_Elbow			L_Elbow			R_Wrist			L_Wrist			R_Asis			L_Asis			Sacral			Thoracic			Sternum			R_Thigh_Lateral			R_Knee_Lateral			R_Shank_Lateral			R_Ankle_Lateral			R_Heel			R_Toe			L_Thigh_Lateral			L_Knee_Lateral			L_Shank_Lateral			L_Ankle_Lateral			L_Heel			L_Toe		
		X1	Y1	Z1	X2	Y2	Z2	X3	Y3	Z3	X4	Y4	Z4	X5	Y5	Z5	X6	Y6	Z6	X7	Y7	Z7	X8	Y8	Z8	X9	Y9	Z9	X10	Y10	Z10	X11	Y11	Z11	X12	Y12	Z12	X13	Y13	Z13	X14	Y14	Z14	X15	Y15	Z15	X16	Y16	Z16	X17	Y17	Z17	X18	Y18	Z18	X19	Y19	Z19	X20	Y20	Z20	X21	Y21	Z21	X22	Y22	Z22	X23	Y23	Z23	X24	Y24	Z24	X25	Y25	Z25
166	1.65000000	626.440063	1359.915283	-72.968712	626.130310	1345.631470	-443.211121	615.600342	1437.616333	-252.980133	717.835754	1313.770874	-253.407623	512.340271	1049.955078	45.215477	525.882751	1037.814697	-534.525696	553.212494	805.241089	85.493595	582.525024	784.469269	-553.694061	658.231750	894.410950	-123.665848	671.870300	890.909485	-376.196442	467.406555	947.381165	-260.207153	480.966705	1210.030029	-255.735443	768.331482	1094.304688	-241.799667	583.384033	533.752075	-44.518246	588.027283	449.589233	-83.740753	482.136932	337.086731	-23.963869	316.080963	198.066086	-148.450302	278.032196	232.870850	-202.189941	379.180298	86.305321	-185.075729	629.679260	549.832703	-467.289429	649.240112	460.159119	-419.225525	640.968140	235.929733	-435.279785	622.967041	53.863407	-341.207611	570.933228	45.997791	-295.372467	757.750977	37.181480	-306.813324
167	1.66000000	636.047729	1360.781006	-72.717529	636.917725	1347.107178	-443.074188	625.893311	1438.796265	-252.779953	728.174011	1315.057129	-253.128067	520.285034	1051.223633	44.681366	539.699829	1038.968262	-536.478271	558.539337	806.117950	84.844334	601.760529	786.976868	-555.536957	669.549133	896.005737	-123.853363	681.784790	891.742249	-376.641632	478.037811	948.387390	-259.547699	491.429291	1211.034668	-255.864441	778.724915	1095.629883	-242.092697	603.564392	535.140991	-44.610619	609.308472	451.603973	-84.366814	505.048309	338.347260	-24.297909	341.545776	195.252136	-147.956131	301.848907	228.117294	-201.892288	409.944550	86.681412	-182.651352	635.226013	550.113708	-466.903625	653.416809	460.074829	-418.755585	642.918274	235.987839	-434.944305	623.214355	54.025188	-340.924988	571.187866	46.393379	-295.181824	757.828613	37.160995	-306.726929
168	1.67000000	645.537659	1361.617188	-72.423477	647.599060	1348.575073	-442.894135	636.043640	1439.906738	-252.531387	738.391541	1316.287354	-252.787476	528.114746	1052.424927	44.102039	553.478210	1040.144531	-538.378967	564.007599	807.008575	84.180698	620.993774	789.648041	-557.232330	680.788635	897.482239	-124.110817	691.644653	892.563782	-377.092285	488.632782	949.278687	-258.793243	501.804596	1211.938721	-255.923401	789.022949	1096.927979	-242.332184	623.494446	536.662292	-44.677437	630.208679	453.645905	-85.059044	527.917114	339.210876	-24.620853	367.643311	191.199554	-147.501205	326.494507	222.095734	-201.555954	441.601593	86.324020	-180.436081	640.603333	550.369324	-466.421783	657.425720	459.989685	-418.209290	644.749390	236.067566	-434.566376	623.437744	54.170914	-340.630005	571.389160	46.759342	-295.008850	757.890564	37.156284	-306.666260
169	1.68000000	654.939026	1362.412109	-72.088737	658.189148	1350.012939	-442.671051	646.063293	1440.936523	-252.235886	748.498779	1317.447754	-252.396606	535.839050	1053.552612	43.480812	567.221924	1041.317749	-540.220215	569.612518	807.893463	83.516113	640.192841	792.457062	-558.778015	691.966309	898.810059	-124.430588	701.455933	893.364258	-377.544006	499.200500	950.046570	-257.951813	512.109131	1212.729126	-255.931152	799.236755	1098.176758	-242.530243	643.119995	538.281189	-44.712624	650.709229	455.677124	-85.786224	550.759644	339.595703	-24.918957	394.416321	186.047775	-147.075562	352.022095	214.908661	-201.227173	473.969788	85.301712	-178.400818	645.885315	550.603394	-465.871887	661.305542	459.905487	-417.597565	646.530457	236.165588	-434.138214	623.629944	54.293007	-340.315674	571.534180	47.084915	-294.835327	757.941895	37.167500	-306.630310
170	1.69000000	664.273743	1363.147949	-71.713120	668.694092	1351.392578	-442.401581	655.966370	1441.871826	-251.892639	758.508545	1318.525391	-251.965942	543.479126	1054.593628	42.827736	580.934021	1042.458130	-541.993958	575.352325	808.745697	82.865189	659.333588	795.368408	-560.175201	703.117981	899.974548	-124.785408	711.227722	894.124939	-377.987640	509.749542	950.687805	-257.031525	522.355652	1213.392334	-255.899170	809.382202	1099.354004	-242.700455	662.397095	539.960754	-44.715374	670.797363	457.664490	-86.522194	573.588501	339.470184	-25.189476	421.932892	179.964081	-146.670074	378.476318	206.666153	-200.954254	506.910919	83.695976	-176.496704	651.133545	550.816772	-465.284088	665.088196	459.821075	-416.935120	648.306580	236.278351	-433.659821	623.781860	54.385292	-339.977631	571.628906	47.361832	-294.632874	757.986633	37.193695	-306.617432
